<?xml version="1.0" standalone="no"?>
<!DOCTYPE svg PUBLIC "-//W3C//DTD SVG 20010904//EN"
 "http://www.w3.org/TR/2001/REC-SVG-20010904/DTD/svg10.dtd">
<svg version="1.0" xmlns="http://www.w3.org/2000/svg"
 width="1280.000000pt" height="1280.000000pt" viewBox="0 0 1280.000000 1280.000000"
 preserveAspectRatio="xMidYMid meet">
<metadata>
Created by potrace 1.15, written by Peter Selinger 2001-2017
</metadata>
<g transform="translate(0.000000,1280.000000) scale(0.100000,-0.100000)"
fill="#000000" stroke="none">
<path d="M6372 12778 c-31 -18 -323 -362 -1272 -1503 -677 -814 -1571 -1887
-1985 -2385 -2537 -3047 -3067 -3684 -3087 -3713 -18 -25 -23 -46 -23 -93 0
-74 33 -131 92 -160 37 -18 84 -19 1436 -22 l1397 -2 0 -2386 c0 -2601 -4
-2408 57 -2466 15 -15 41 -32 56 -37 20 -8 1030 -11 3360 -11 3222 0 3333 1
3373 19 49 22 80 60 95 115 8 29 10 703 7 2403 l-3 2363 1395 2 c1349 3 1396
4 1433 22 60 30 92 86 92 162 0 58 -3 65 -47 122 -25 33 -642 788 -1370 1678
-728 891 -2106 2575 -3061 3744 -1378 1685 -1746 2130 -1779 2148 -24 13 -58
22 -83 22 -25 0 -59 -9 -83 -22z"/>
</g>
</svg>
